<?xml version="1.0" encoding="UTF-8"?>
<svg version="1.1" xmlns="http://www.w3.org/2000/svg" width="663" height="217">
<path d="M0 0 C218.79 0 437.58 0 663 0 C663 71.61 663 143.22 663 217 C444.21 217 225.42 217 0 217 C0 145.39 0 73.78 0 0 Z " fill="#FEFEFE" transform="translate(0,0)"/>
<path d="M0 0 C1.79715454 0.00616333 1.79715454 0.00616333 3.63061523 0.01245117 C4.92805664 0.01438477 6.22549805 0.01631836 7.56225586 0.01831055 C8.23893311 0.02451416 8.91561035 0.03071777 9.61279297 0.03710938 C11.68461369 0.0553794 13.75598795 0.05761897 15.82788086 0.05737305 C25.98662641 0.10283735 25.98662641 0.10283735 27.12670898 1.24291992 C27.21356501 2.80464737 27.23373118 4.37021336 27.22436523 5.93432617 C27.21953125 7.35068359 27.21953125 7.35068359 27.21459961 8.7956543 C27.20203125 10.28548828 27.20203125 10.28548828 27.18920898 11.80541992 C27.18469727 12.80250977 27.18018555 13.79959961 27.17553711 14.8269043 C27.16370905 17.29896841 27.14722748 19.7709151 27.12670898 22.24291992 C28.22370117 21.58163086 29.32069336 20.9203418 30.45092773 20.23901367 C31.90490755 19.38538681 33.35935967 18.53256404 34.81420898 17.68041992 C35.53543945 17.2427832 36.25666992 16.80514648 36.99975586 16.35424805 C42.34264225 13.25586188 42.34264225 13.25586188 45.96655273 13.19604492 C48.76115917 14.55039307 49.53306092 15.83103431 51.00170898 18.55541992 C51.49541992 19.45260742 51.98913086 20.34979492 52.49780273 21.27416992 C53.0353418 22.25385742 53.57288086 23.23354492 54.12670898 24.24291992 C54.77768555 25.28448242 55.42866211 26.32604492 56.09936523 27.39916992 C56.74776367 28.44073242 57.39616211 29.48229492 58.06420898 30.55541992 C58.67135742 31.52092773 59.27850586 32.48643555 59.90405273 33.48120117 C61.12670898 36.24291992 61.12670898 36.24291992 61.25170898 38.82885742 C59.56201828 42.45465205 56.59518297 43.77648207 53.18920898 45.55541992 C52.54274414 45.91442383 51.8962793 46.27342773 51.23022461 46.64331055 C46.46179827 49.24291992 46.46179827 49.24291992 44.12670898 49.24291992 C44.12670898 49.90291992 44.12670898 50.56291992 44.12670898 51.24291992 C44.82151367 51.4981543 45.51631836 51.75338867 46.23217773 52.01635742 C49.47988347 53.39257821 52.40653815 55.06831305 55.43920898 56.86791992 C56.5078418 57.49956055 57.57647461 58.13120117 58.67749023 58.78198242 C59.88985352 59.50514648 59.88985352 59.50514648 61.12670898 60.24291992 C60.53943348 64.10684727 59.39473161 66.91639007 57.43920898 70.28979492 C56.90553711 71.21663086 56.37186523 72.1434668 55.82202148 73.09838867 C55.26256836 74.05358398 54.70311523 75.0087793 54.12670898 75.99291992 C53.56725586 76.96358398 53.00780273 77.93424805 52.43139648 78.93432617 C48.29977792 86.06985098 48.29977792 86.06985098 47.12670898 87.24291992 C42.21344878 87.97216077 38.85682218 85.70762333 34.81420898 83.24291992 C34.1690332 82.86135742 33.52385742 82.47979492 32.85913086 82.08666992 C31.27587418 81.14844374 29.70047693 80.19697681 28.12670898 79.24291992 C28.08912476 80.09841431 28.08912476 80.09841431 28.05078125 80.97119141 C27.9351435 83.54118149 27.81227274 86.1107752 27.68920898 88.68041992 C27.64989258 89.57825195 27.61057617 90.47608398 27.57006836 91.40112305 C27.52817383 92.25512695 27.4862793 93.10913086 27.44311523 93.98901367 C27.40645752 94.77977295 27.3697998 95.57053223 27.33203125 96.38525391 C27.12670898 98.24291992 27.12670898 98.24291992 26.12670898 99.24291992 C23.92020242 99.34304394 21.71048512 99.37373172 19.50170898 99.37573242 C18.83961426 99.37668915 18.17751953 99.37764587 17.49536133 99.37863159 C16.09317937 99.37931319 14.69099428 99.37746034 13.28881836 99.37329102 C11.13575185 99.36794239 8.98289396 99.37323662 6.82983398 99.37963867 C5.47045852 99.37897789 4.11108319 99.37769672 2.75170898 99.37573242 C1.50647461 99.37460449 0.26124023 99.37347656 -1.02172852 99.37231445 C-3.87329102 99.24291992 -3.87329102 99.24291992 -4.87329102 98.24291992 C-4.95998534 96.75420133 -4.98032595 95.26147493 -4.97094727 93.77026367 C-4.96772461 92.87114258 -4.96450195 91.97202148 -4.96118164 91.0456543 C-4.94861328 89.62736328 -4.94861328 89.62736328 -4.93579102 88.18041992 C-4.9312793 87.23102539 -4.92676758 86.28163086 -4.92211914 85.3034668 C-4.91029212 82.94988927 -4.89381127 80.59643515 -4.87329102 78.24291992 C-5.9702832 78.90420898 -7.06727539 79.56549805 -8.19750977 80.24682617 C-9.65148959 81.10045303 -11.1059417 81.9532758 -12.56079102 82.80541992 C-13.64263672 83.461875 -13.64263672 83.461875 -14.74633789 84.1315918 C-15.45209961 84.54086914 -16.15786133 84.95014648 -16.88500977 85.37182617 C-17.52913818 85.75411377 -18.1732666 86.13640137 -18.83691406 86.53027344 C-21.64226731 87.51202936 -23.09808127 87.29012733 -25.87329102 86.24291992 C-27.65014648 84.08154297 -27.65014648 84.08154297 -29.24047852 81.25463867 C-29.81540039 80.23821289 -30.39032227 79.22178711 -30.98266602 78.17456055 C-31.56532227 77.10399414 -32.14797852 76.03342773 -32.74829102 74.93041992 C-33.35415039 73.87145508 -33.96000977 72.81249023 -34.58422852 71.72143555 C-38.91371067 63.93328754 -38.91371067 63.93328754 -38.74511719 61.05371094 C-37.6583992 58.79658763 -36.65892642 58.12042587 -34.49438477 56.88354492 C-33.48408203 56.29379883 -33.48408203 56.29379883 -32.45336914 55.69213867 C-31.74631836 55.29639648 -31.03926758 54.9006543 -30.31079102 54.49291992 C-29.59987305 54.08170898 -28.88895508 53.67049805 -28.15649414 53.24682617 C-26.40195014 52.23413635 -24.63843941 51.23701071 -22.87329102 50.24291992 C-26.33602176 47.38157751 -29.88015378 44.87717458 -33.68579102 42.49291992 C-34.66161133 41.87932617 -35.63743164 41.26573242 -36.64282227 40.63354492 C-37.37887695 40.17463867 -38.11493164 39.71573242 -38.87329102 39.24291992 C-38.29515798 35.43670145 -37.21333816 32.7337372 -35.22094727 29.44995117 C-34.42720703 28.13414063 -34.42720703 28.13414063 -33.61743164 26.79174805 C-32.78501953 25.43726563 -32.78501953 25.43726563 -31.93579102 24.05541992 C-31.3847168 23.14083008 -30.83364258 22.22624023 -30.26586914 21.28393555 C-26.16875624 14.53838515 -26.16875624 14.53838515 -23.87329102 12.24291992 C-19.16424213 12.50594788 -15.50962167 14.95076189 -11.56079102 17.30541992 C-10.91561523 17.6824707 -10.27043945 18.05952148 -9.60571289 18.44799805 C-8.0245095 19.37329485 -6.44837642 20.30724673 -4.87329102 21.24291992 C-4.88900146 20.39528076 -4.88900146 20.39528076 -4.9050293 19.53051758 C-4.9465389 16.9763634 -4.97260061 14.4222801 -4.99829102 11.86791992 C-5.01504883 10.9784668 -5.03180664 10.08901367 -5.04907227 9.17260742 C-5.05874023 7.89643555 -5.05874023 7.89643555 -5.06860352 6.59448242 C-5.08431396 5.41619873 -5.08431396 5.41619873 -5.1003418 4.21411133 C-4.70202746 0.75605759 -3.29029235 0.27817494 0 0 Z " fill="#6B0D4B" transform="translate(106.873291015625,84.757080078125)"/>
<path d="M0 0 C4.29 0 8.58 0 13 0 C13 7.26 13 14.52 13 22 C14.98 21.01 16.96 20.02 19 19 C24.55804784 18.38243913 29.10005161 19.42597648 34 22 C39.02863192 26.11433521 42.56556207 30.56399091 43.38671875 37.05859375 C43.61474037 43.85992838 43.21813575 49.484984 39 55 C33.87164557 60.24490794 28.51718447 62.64232022 21.3125 63.375 C17.76715032 62.97363966 15.86070466 62.08051248 13 60 C13 60.66 13 61.32 13 62 C8.71 62 4.42 62 0 62 C0 41.54 0 21.08 0 0 Z " fill="#1C1818" transform="translate(561,105)"/>
<path d="M0 0 C4.29 0 8.58 0 13 0 C13.33 6.93 13.66 13.86 14 21 C15.32 20.34 16.64 19.68 18 19 C23.73344539 18.43789751 28.89638821 19.34612187 34 22 C38.51181988 25.97424134 41.74251636 30.37426567 42.3359375 36.42578125 C42.46849141 49.61489497 42.46849141 49.61489497 38 55 C33.12787448 59.94139744 29.11834191 62.75251255 22.0625 63.3125 C18.13858202 63.23059659 15.37940422 62.02764253 12 60 C12 60.66 12 61.32 12 62 C8.04 62 4.08 62 0 62 C0 41.54 0 21.08 0 0 Z " fill="#181414" transform="translate(204,105)"/>
<path d="M0 0 C4.79418802 4.22912718 8.53698662 8.77408421 9.24609375 15.24609375 C9.59984049 22.28886984 8.19716343 27.43050868 3.45703125 32.72265625 C-1.716583 37.54110248 -6.96161713 39.6624019 -13.9375 40.4375 C-20.83465952 40.09940394 -26.2661162 37.17870883 -30.9375 32.1875 C-35.08264674 26.99647133 -36.53665705 21.71463078 -36.3046875 15.0390625 C-35.28097528 8.18806536 -31.24695919 3.65367174 -26.0078125 -0.58984375 C-17.83318495 -6.33116777 -8.20375869 -4.78886077 0 0 Z " fill="#1A1616" transform="translate(433,128)"/>
<path d="M0 0 C4.28580683 3.80078754 7.67753382 8.16529727 8.3359375 13.953125 C8.41644237 20.74773632 8.45682239 26.56786191 4 32 C-2.86267242 38.29653647 -8.23786622 39.37984872 -17.48046875 39.265625 C-22.15514535 38.91281922 -25.44701683 38.11607341 -29 35 C-34.26480565 28.58966521 -36.43854549 23.2128208 -36.33984375 14.921875 C-35.70260529 9.44308913 -33.30077999 5.18841632 -29.3203125 1.40234375 C-20.08270374 -5.63876693 -9.91093546 -5.68470044 0 0 Z " fill="#181414" transform="translate(306,128)"/>
<path d="M0 0 C4.28580683 3.80078754 7.67753382 8.16529727 8.3359375 13.953125 C8.41644237 20.74773632 8.45682239 26.56786191 4 32 C-1.69230966 37.22272275 -6.02819527 39.15052007 -13.8125 39.25 C-15.61654297 39.28867188 -15.61654297 39.28867188 -17.45703125 39.328125 C-23.83473874 38.73746631 -27.93445334 35.81446315 -32 31 C-35.57417362 25.88904815 -36.75796428 21.03933287 -36.515625 14.81640625 C-35.34753896 8.43617871 -31.91432597 3.59527164 -27 -0.5 C-17.47968039 -5.26015981 -9.27429252 -5.31953568 0 0 Z " fill="#181414" transform="translate(386,128)"/>
<path d="M0 0 C3.96 0 7.92 0 12 0 C12.33 7.59 12.66 15.18 13 23 C13.99 22.01 14.98 21.02 16 20 C21.4094229 18.19685903 26.3764218 18.52091135 31.8125 20.125 C35.89104087 22.52414169 38.06830322 25.25113161 39.59545898 29.75683594 C40.1521999 32.84394246 40.11094529 35.81691185 40.09765625 38.953125 C40.0962413 39.61334656 40.09482635 40.27356812 40.09336853 40.95379639 C40.08779245 43.05257794 40.07524447 45.15125095 40.0625 47.25 C40.0574819 48.67708179 40.05291954 50.10416525 40.04882812 51.53125 C40.03868377 55.02090832 40.01910401 58.51033332 40 62 C35.71 62 31.42 62 27 62 C26.95101563 59.85757813 26.90203125 57.71515625 26.8515625 55.5078125 C26.79757294 53.43596327 26.74025768 51.36423096 26.68261719 49.29248047 C26.64430326 47.8511626 26.60945457 46.40974832 26.578125 44.96826172 C26.53252554 42.89776114 26.47452556 40.82792567 26.4140625 38.7578125 C26.36693115 36.88826904 26.36693115 36.88826904 26.31884766 34.98095703 C26.30317691 31.88458224 26.30317691 31.88458224 24 30 C19.93904042 29.52786327 19.93904042 29.52786327 16 30 C12.76091773 33.30070335 12.59104033 35.99422568 12.48828125 40.515625 C12.45283203 41.76601562 12.41738281 43.01640625 12.38085938 44.3046875 C12.34702148 46.25761719 12.34702148 46.25761719 12.3125 48.25 C12.27833984 49.56742188 12.24417969 50.88484375 12.20898438 52.2421875 C12.1264984 55.49449171 12.06157327 58.74723267 12 62 C8.04 62 4.08 62 0 62 C0 41.54 0 21.08 0 0 Z " fill="#171313" transform="translate(467,105)"/>
<path d="M0 0 C3.96 0 7.92 0 12 0 C12.04898438 1.89105469 12.09796875 3.78210938 12.1484375 5.73046875 C12.22347725 8.2161604 12.29902456 10.70183677 12.375 13.1875 C12.4059375 14.43337891 12.436875 15.67925781 12.46875 16.96289062 C12.50742187 18.16494141 12.54609375 19.36699219 12.5859375 20.60546875 C12.6173584 21.71043701 12.6487793 22.81540527 12.68115234 23.95385742 C12.99877182 26.98826646 13.72246035 29.24544522 15 32 C16.258125 32.0825 17.51625 32.165 18.8125 32.25 C19.52019531 32.29640625 20.22789062 32.3428125 20.95703125 32.390625 C23.12843066 32.17564978 23.12843066 32.17564978 24.59570312 30.3828125 C26.41842068 27.29002333 26.43037286 25.06359407 26.51171875 21.484375 C26.54716797 20.23398438 26.58261719 18.98359375 26.61914062 17.6953125 C26.64169922 16.39335937 26.66425781 15.09140625 26.6875 13.75 C26.72166016 12.43257812 26.75582031 11.11515625 26.79101562 9.7578125 C26.8735016 6.50550829 26.93842673 3.25276733 27 0 C31.29 0 35.58 0 40 0 C40 13.86 40 27.72 40 42 C35.71 42 31.42 42 27 42 C26.67 41.34 26.34 40.68 26 40 C25.195625 40.495 24.39125 40.99 23.5625 41.5 C17.9743199 43.85291793 13.27638552 43.88526104 7.625 41.6875 C2.86983076 38.63060549 1.53409432 36.51006906 0 31 C-0.22705078 27.47314453 -0.22705078 27.47314453 -0.1953125 23.6328125 C-0.1924826 22.95322479 -0.18965271 22.27363708 -0.18673706 21.57345581 C-0.17562964 19.42378392 -0.15054391 17.27454386 -0.125 15.125 C-0.11495795 13.65886023 -0.10583425 12.19271386 -0.09765625 10.7265625 C-0.07572159 7.15090369 -0.04125814 3.57549406 0 0 Z " fill="#181414" transform="translate(514,125)"/>
<path d="M0 0 C4.29 0 8.58 0 13 0 C13 3.96 13 7.92 13 12 C15.97 12 18.94 12 22 12 C22 15.3 22 18.6 22 22 C19.03 22 16.06 22 13 22 C13.33 28.93 13.66 35.86 14 43 C16.64 43 19.28 43 22 43 C22 46.3 22 49.6 22 53 C16.6008299 55.69958505 13.09638621 55.56851151 7.3125 54 C2.97479689 51.38100944 1.55118844 48.76788355 0 44 C-0.45015588 40.14647161 -0.38213908 36.37269137 -0.25 32.5 C-0.23195313 31.48679688 -0.21390625 30.47359375 -0.1953125 29.4296875 C-0.14856583 26.95211393 -0.08306372 24.47657684 0 22 C-1.65 22 -3.3 22 -5 22 C-5 18.7 -5 15.4 -5 12 C-3.35 12 -1.7 12 0 12 C0 8.04 0 4.08 0 0 Z " fill="#1A1616" transform="translate(322,113)"/>
<path d="M0 0 C4.29 0 8.58 0 13 0 C13 21.12 13 42.24 13 64 C8.71 64 4.42 64 0 64 C0 42.88 0 21.76 0 0 Z " fill="#1A1616" transform="translate(446,103)"/>
<path d="M0 0 C3.96 0 7.92 0 12 0 C12 13.86 12 27.72 12 42 C8.04 42 4.08 42 0 42 C0 28.14 0 14.28 0 0 Z " fill="#141010" transform="translate(253,125)"/>
<path d="M0 0 C4.26253132 0.99761371 6.69941991 2.97777035 9.25 6.5 C10.65845645 10.98145233 10.37166579 14.61242282 8.625 18.9375 C5.85170912 23.456937 5.85170912 23.456937 3.9375 24.6875 C0.5625 25.1875 0.5625 25.1875 -3.0625 24.6875 C-6.77462272 21.70166216 -8.64193184 19.43450213 -9.37109375 14.671875 C-9.6330746 10.13087367 -9.28583846 7.27652528 -6.4375 3.625 C-4.15119676 1.31179908 -3.26355199 0.73263412 0 0 Z " fill="#F9F9F9" transform="translate(224.0625,133.3125)"/>
<path d="M0 0 C2.94127984 2.39946513 4.81624259 4.32509643 5.23828125 8.171875 C5.36331152 12.51503183 5.20744927 15.50730799 3.5 19.5625 C0.61340963 22.37692562 -1.07403148 23.07624815 -5.03125 23.3125 C-8.45466535 22.76910074 -9.97404965 20.6398747 -12 18 C-13.96752105 14.0649579 -13.46422595 9.2894478 -13 5 C-9.3918735 -1.01354417 -6.69427002 -1.50043983 0 0 Z " fill="#FAFAFA" transform="translate(586,135)"/>
<path d="M0 0 C3.26244817 0.9029402 4.89772796 2.94405434 6.93359375 5.53515625 C8.46956829 8.60710533 8.16009755 11.13759918 7.93359375 14.53515625 C6.35635073 18.5158172 5.52358464 20.14182899 1.93359375 22.53515625 C-5.15810931 23.21055654 -5.15810931 23.21055654 -8.50390625 20.72265625 C-11.60640392 16.37915951 -11.82038332 11.69025531 -11.06640625 6.53515625 C-8.85811369 1.45814719 -5.36838472 -0.39577884 0 0 Z " fill="#F8F8F8" transform="translate(374.06640625,134.46484375)"/>
<path d="M0 0 C3.26244817 0.9029402 4.89772796 2.94405434 6.93359375 5.53515625 C8.46956829 8.60710533 8.16009755 11.13759918 7.93359375 14.53515625 C6.35635073 18.5158172 5.52358464 20.14182899 1.93359375 22.53515625 C-5.15810931 23.21055654 -5.15810931 23.21055654 -8.50390625 20.72265625 C-11.60640392 16.37915951 -11.82038332 11.69025531 -11.06640625 6.53515625 C-8.85811369 1.45814719 -5.36838472 -0.39577884 0 0 Z " fill="#F8F8F8" transform="translate(294.06640625,134.46484375)"/>
<path d="M0 0 C3.15954305 2.54137159 4.71540886 4.14622659 6 8 C6.53756448 13.69818352 5.60129241 16.55134467 2 21 C-1.13871188 22.56935594 -3.53855822 22.35201103 -7 22 C-10.15954305 19.45862841 -11.71540886 17.85377341 -13 14 C-13.53756448 8.30181648 -12.60129241 5.44865533 -9 1 C-5.86128812 -0.56935594 -3.46144178 -0.35201103 0 0 Z " fill="#FAFAFA" transform="translate(423,135)"/>
<path d="M0 0 C-0.03480469 0.75925781 -0.06960937 1.51851563 -0.10546875 2.30078125 C-0.14607422 3.79158203 -0.14607422 3.79158203 -0.1875 5.3125 C-0.22230469 6.29863281 -0.25710937 7.28476563 -0.29296875 8.30078125 C-0.22299193 10.9741211 -0.22299193 10.9741211 1.1953125 12.69921875 C4.15453682 14.83216615 7.41754183 16.20451256 10.72265625 17.71875 C13 19 13 19 15 22 C15.67605634 29.09859155 15.67605634 29.09859155 13.125 32.5 C11 34 11 34 9 34 C8.90021879 30.50765756 9.22157062 27.40562852 10 24 C9.34 23.608125 8.68 23.21625 8 22.8125 C5.59908547 21.36194747 3.20114887 19.90810714 0.8125 18.4375 C0.13832031 18.02371094 -0.53585938 17.60992187 -1.23046875 17.18359375 C-3 16 -3 16 -5 14 C-5.78185619 9.37250231 -5.5847987 5.92435924 -3.0625 1.9375 C-1 0 -1 0 0 0 Z " fill="#F7F2F5" transform="translate(113,107)"/>
<path d="M0 0 C2.375 0.875 2.375 0.875 4.375 3.875 C4 6.5625 4 6.5625 3.375 8.875 C2.385 9.205 1.395 9.535 0.375 9.875 C0.375 15.815 0.375 21.755 0.375 27.875 C-0.945 27.215 -2.265 26.555 -3.625 25.875 C-4.03787813 23.0985442 -4.23055168 20.65610922 -4.25 17.875 C-4.01161787 12.37699917 -4.01161787 12.37699917 -6.625 7.875 C-7 5.4375 -7 5.4375 -6.625 2.875 C-4.39928105 0.40197895 -3.34204055 -0.15914479 0 0 Z " fill="#F5EFF3" transform="translate(119.625,92.125)"/>
<path d="M0 0 C-0.04640625 0.75925781 -0.0928125 1.51851562 -0.140625 2.30078125 C-0.17671875 3.29464844 -0.2128125 4.28851563 -0.25 5.3125 C-0.29640625 6.29863281 -0.3428125 7.28476563 -0.390625 8.30078125 C-0.26856348 11.10905212 -0.26856348 11.10905212 1.85546875 12.76171875 C2.56316406 13.17035156 3.27085938 13.57898438 4 14 C10.60027285 17.86357435 10.60027285 17.86357435 12 20 C12.42802235 22.84957344 12.27916028 25.06881709 12 28 C11.01 28.66 10.02 29.32 9 30 C8.938125 28.741875 8.87625 27.48375 8.8125 26.1875 C8.40842392 22.66493763 8.40842392 22.66493763 5.8125 20.25 C4.884375 19.8375 3.95625 19.425 3 19 C-1.17267046 16.49639773 -4.17443747 14.61759935 -6 10 C-5.87596218 6.40290314 -5.73143838 3.98585173 -3.5625 1.0625 C-2 0 -2 0 0 0 Z " fill="#F3EBF0" transform="translate(113,141)"/>
<path d="M0 0 C2 2 2 2 2.3125 5.4375 C2 9 2 9 0.875 10.9375 C-1.93512264 12.52990283 -3.82764724 12.45319325 -7 12 C-9.83171242 9.98799381 -10.84987863 8.87928233 -11.4375 5.4375 C-11 3 -11 3 -10 1.1875 C-6.67642865 -0.78587049 -3.81941755 -0.30312838 0 0 Z " fill="#1C1818" transform="translate(263,107)"/>
<path d="M0 0 C3.11954738 0.33724836 4.6209965 0.6209965 6.875 2.875 C7.24625 3.57625 7.6175 4.2775 8 5 C7.67 5.99 7.34 6.98 7 8 C4.28324005 7.63287028 2.38936287 7.27255401 0.125 5.6875 C-1 4 -1 4 -0.6875 1.8125 C-0.460625 1.214375 -0.23375 0.61625 0 0 Z " fill="#E8DAE3" transform="translate(124,107)"/>
</svg>
